<?xml version="1.0" encoding="UTF-8" standalone="no"?>
<!-- Created with Inkscape (http://www.inkscape.org/) -->

<svg
   width="800"
   height="800"
   viewBox="0 0 211.66666 211.66666"
   version="1.1"
   id="svg1"
   inkscape:version="1.3.2 (091e20e, 2023-11-25, custom)"
   sodipodi:docname="pacman_template.svg"
   inkscape:export-filename="sprite5.png"
   inkscape:export-xdpi="96"
   inkscape:export-ydpi="96"
   xmlns:inkscape="http://www.inkscape.org/namespaces/inkscape"
   xmlns:sodipodi="http://sodipodi.sourceforge.net/DTD/sodipodi-0.dtd"
   xmlns="http://www.w3.org/2000/svg"
   xmlns:svg="http://www.w3.org/2000/svg">
  <sodipodi:namedview
     id="namedview1"
     pagecolor="#505050"
     bordercolor="#eeeeee"
     borderopacity="1"
     inkscape:showpageshadow="0"
     inkscape:pageopacity="0"
     inkscape:pagecheckerboard="0"
     inkscape:deskcolor="#505050"
     inkscape:document-units="mm"
     inkscape:zoom="0.34609638"
     inkscape:cx="781.57419"
     inkscape:cy="284.6028"
     inkscape:window-width="1920"
     inkscape:window-height="991"
     inkscape:window-x="-9"
     inkscape:window-y="-9"
     inkscape:window-maximized="1"
     inkscape:current-layer="layer1" />
  <defs
     id="defs1" />
  <g
     inkscape:label="Warstwa 1"
     inkscape:groupmode="layer"
     id="layer1">
    <path
       d="M 57.24463,105.83333 A 57.244679,52.916716 0 0 0 0,158.75 a 57.244679,52.916716 0 0 0 57.24463,52.91666 57.244679,52.916716 0 0 0 48.5887,-25.24764 L 59.20578,164.39879 102.43095,126.28596 A 57.244679,52.916716 0 0 0 57.24463,105.83333 Z"
       style="fill:#f3f31d;stroke:#000000;stroke-width:0"
       id="path2-1" />
    <ellipse
       style="fill:#f3f3f3;fill-opacity:1;stroke:#000000;stroke-width:0;stroke-dasharray:none"
       id="path3-7"
       cx="67.72908"
       cy="125.02291"
       rx="8.597187"
       ry="7.9471993" />
    <ellipse
       style="fill:#0f0f0f;fill-opacity:1;stroke:#0f0f0f;stroke-width:0;stroke-dasharray:none;stroke-opacity:1"
       id="path4-5"
       cx="71.293747"
       cy="125.21674"
       rx="3.7743745"
       ry="3.8766828" />
    <path
       d="m 154.42203,105.83333 a 57.244679,52.916716 0 0 1 57.24463,52.91667 57.244679,52.916716 0 0 1 -57.24463,52.91666 57.244679,52.916716 0 0 1 -48.5887,-25.24764 l 46.62755,-22.02023 -43.22517,-38.11283 a 57.244679,52.916716 0 0 1 45.18632,-20.45263 z"
       style="fill:#f3f31d;stroke:#000000;stroke-width:0"
       id="path2-0" />
    <ellipse
       style="fill:#f3f3f3;fill-opacity:1;stroke:#000000;stroke-width:0;stroke-dasharray:none"
       id="path3-2"
       cx="-143.93758"
       cy="125.02291"
       rx="8.597187"
       ry="7.9471993"
       transform="scale(-1,1)" />
    <ellipse
       style="fill:#0f0f0f;fill-opacity:1;stroke:#0f0f0f;stroke-width:0;stroke-dasharray:none;stroke-opacity:1"
       id="path4-0"
       cx="-140.37291"
       cy="125.21674"
       rx="3.7743745"
       ry="3.8766828"
       transform="scale(-1,1)" />
    <circle
       style="fill:#f3f31d;fill-opacity:1;stroke:#000000;stroke-width:0;stroke-dasharray:none"
       id="path5-69"
       cx="52.916672"
       cy="52.916668"
       r="52.916668" />
    <ellipse
       style="fill:#f3f3f3;fill-opacity:1;stroke:#000000;stroke-width:0;stroke-dasharray:none"
       id="path3-20-6"
       cx="70.400589"
       cy="24.431271"
       rx="8.597187"
       ry="7.9471993" />
    <ellipse
       style="fill:#0f0f0f;fill-opacity:1;stroke:#0f0f0f;stroke-width:0;stroke-dasharray:none;stroke-opacity:1"
       id="path4-58-6"
       cx="73.965286"
       cy="24.625118"
       rx="3.7743745"
       ry="3.8766828" />
    <path
       style="fill:#0f0f0f;fill-opacity:1;stroke:#0f0f0f;stroke-width:1.5;stroke-dasharray:none;stroke-opacity:1"
       d="m 105.48847,49.263194 -42.31969,9.0467"
       id="path6-5" />
    <circle
       style="fill:#f3f31d;fill-opacity:1;stroke:#000000;stroke-width:0;stroke-dasharray:none"
       id="path5-5"
       cx="-158.74998"
       cy="52.916668"
       r="52.916668"
       transform="scale(-1,1)" />
    <ellipse
       style="fill:#f3f3f3;fill-opacity:1;stroke:#000000;stroke-width:0;stroke-dasharray:none"
       id="path3-20-9"
       cx="-141.26607"
       cy="24.431286"
       rx="8.597187"
       ry="7.9471993"
       transform="scale(-1,1)" />
    <ellipse
       style="fill:#0f0f0f;fill-opacity:1;stroke:#0f0f0f;stroke-width:0;stroke-dasharray:none;stroke-opacity:1"
       id="path4-58-0"
       cx="-137.70137"
       cy="24.625134"
       rx="3.7743745"
       ry="3.8766828"
       transform="scale(-1,1)" />
    <path
       style="fill:#0f0f0f;fill-opacity:1;stroke:#0f0f0f;stroke-width:1.5;stroke-dasharray:none;stroke-opacity:1"
       d="m 106.17818,49.263211 42.31969,9.0467"
       id="path6-53" />
  </g>
</svg>
