<?xml version="1.0" encoding="UTF-8" standalone="no"?>
<!-- Created with Inkscape (http://www.inkscape.org/) -->

<svg
   width="2000"
   height="400"
   viewBox="0 0 529.16665 105.83333"
   version="1.1"
   id="svg1"
   inkscape:export-filename="sprite_template.png"
   inkscape:export-xdpi="96"
   inkscape:export-ydpi="96"
   inkscape:version="1.3.2 (091e20e, 2023-11-25, custom)"
   sodipodi:docname="sprite_template.svg"
   xmlns:inkscape="http://www.inkscape.org/namespaces/inkscape"
   xmlns:sodipodi="http://sodipodi.sourceforge.net/DTD/sodipodi-0.dtd"
   xmlns="http://www.w3.org/2000/svg"
   xmlns:svg="http://www.w3.org/2000/svg">
  <sodipodi:namedview
     id="namedview1"
     pagecolor="#505050"
     bordercolor="#eeeeee"
     borderopacity="1"
     inkscape:showpageshadow="0"
     inkscape:pageopacity="0"
     inkscape:pagecheckerboard="0"
     inkscape:deskcolor="#505050"
     inkscape:document-units="mm"
     inkscape:zoom="0.34609638"
     inkscape:cx="787.35292"
     inkscape:cy="377.06259"
     inkscape:window-width="1920"
     inkscape:window-height="991"
     inkscape:window-x="-9"
     inkscape:window-y="-9"
     inkscape:window-maximized="1"
     inkscape:current-layer="layer1" />
  <defs
     id="defs1" />
  <g
     inkscape:label="Warstwa 1"
     inkscape:groupmode="layer"
     id="layer1"
     transform="matrix(1.2591906,0,0,1.2591906,-0.04623161,-0.15821268)">
    <g
       id="g19"
       transform="matrix(10.879325,0,0,10.113083,334.29098,-0.77453113)">
      <path
         style="fill:#da0c0c;fill-opacity:1;stroke-width:0.947726"
         d="m 4.1046542,0.08904113 c 1.4939,-0.00645 2.213809,1.02914437 2.237408,2.94885357 0.0236,1.9197092 0.31754,3.5353968 0.894963,3.9234678 0.577422,0.388071 0.721994,0.598646 0.649709,0.90765 -0.07229,0.309004 -0.697039,0.8802188 -1.218527,0.239619 -0.521488,-0.640599 -0.910453,-0.128281 -0.910453,-0.128281 0,0 -0.448342,0.589771 -1.062768,0.01856 -0.614427,-0.571214 -1.107517,0.05164 -1.107517,0.05164 0,0 -0.551607,0.520386 -1.069653,-0.0097 -0.518046,-0.530068 -0.960364,0.0242 -0.960364,0.0242 0,0 -0.56881796,0.6648018 -1.11526196,0.0065 -0.54644399,-0.658348 -0.15391399,-0.703801 0.361428,-1.085952 C 1.3189592,6.6034475 1.7921302,4.723977 1.7570972,3.0839112 1.7183772,1.2710319 2.6107542,0.09552453 4.1046542,0.08907013 Z"
         id="path1"
         sodipodi:nodetypes="zzssscscscszsz" />
      <ellipse
         style="fill:#cfcfcf;fill-opacity:0.993341;fill-rule:nonzero;stroke-width:0.947726"
         id="path2"
         cx="3.136976"
         cy="1.9394368"
         rx="0.58473784"
         ry="0.44495013" />
      <ellipse
         style="fill:#cfcfcf;fill-opacity:0.993341;fill-rule:nonzero;stroke-width:0.947726"
         id="path2-0"
         cx="4.9474959"
         cy="1.9610552"
         rx="0.58473784"
         ry="0.44495013" />
      <ellipse
         style="fill:#000000;fill-opacity:0.993341;fill-rule:nonzero;stroke-width:0.726245"
         id="path3"
         cx="3.1343935"
         cy="1.936613"
         rx="0.10283469"
         ry="0.10488398" />
      <ellipse
         style="fill:#000000;fill-opacity:0.993341;fill-rule:nonzero;stroke-width:0.726245"
         id="path3-6"
         cx="4.9592052"
         cy="1.9424456"
         rx="0.10283469"
         ry="0.10488398" />
    </g>
    <g
       id="g18"
       style="display:inline"
       transform="matrix(8.6399355,0,0,8.0314151,151.48233,-1.7000949)">
      <path
         style="fill:#da0c0c;fill-opacity:1;stroke-width:1.19337"
         d="m 16.599176,0.22736267 c 1.881105,-0.00812 2.787607,1.29588883 2.817323,3.71316863 0.02972,2.4172797 0.399843,4.4517382 1.126929,4.9403942 0.727084,0.488655 0.909128,0.753809 0.818108,1.1429045 -0.09103,0.389095 -0.877705,1.108363 -1.534358,0.301726 -0.656653,-0.8066365 -1.146434,-0.16153 -1.146434,-0.16153 0,0 -0.564548,0.742634 -1.338228,0.02337 -0.77368,-0.7192675 -1.394575,0.06502 -1.394575,0.06502 0,0 -0.694578,0.655265 -1.346897,-0.01221 -0.652318,-0.6674575 -1.209281,0.03047 -1.209281,0.03047 0,0 -0.71625,0.837112 -1.404327,0.0082 -0.688077,-0.8289865 -0.193807,-0.8862205 0.455107,-1.3674215 0.648912,-0.481201 1.244725,-2.8478123 1.200611,-4.9129677 -0.04876,-2.2827606 1.074917,-3.76294833 2.956022,-3.77107563 z"
         id="path11-5"
         sodipodi:nodetypes="zzssscscscszsz" />
      <ellipse
         style="fill:#cfcfcf;fill-opacity:0.993341;fill-rule:nonzero;stroke-width:1.19337"
         id="ellipse11-7"
         cx="15.380685"
         cy="2.5573635"
         rx="0.73629642"
         ry="0.56027704" />
      <ellipse
         style="fill:#cfcfcf;fill-opacity:0.993341;fill-rule:nonzero;stroke-width:1.19337"
         id="ellipse12-6"
         cx="17.660475"
         cy="2.5845852"
         rx="0.73629642"
         ry="0.56027704" />
      <ellipse
         style="fill:#000000;fill-opacity:0.993341;fill-rule:nonzero;stroke-width:0.914481"
         id="ellipse13-4"
         cx="15.377433"
         cy="2.5538077"
         rx="0.12948847"
         ry="0.13206892" />
      <ellipse
         style="fill:#000000;fill-opacity:0.993341;fill-rule:nonzero;stroke-width:0.914481"
         id="ellipse14-4"
         cx="17.675219"
         cy="2.561152"
         rx="0.12948847"
         ry="0.13206892" />
    </g>
    <g
       id="g17"
       style="display:inline"
       transform="matrix(8.6399355,0,0,8.0314151,67.433633,-1.7000949)">
      <path
         style="fill:#da0c0c;fill-opacity:1;stroke-width:1.19337"
         d="m 16.599176,0.22736267 c 1.881105,-0.00812 2.787607,1.29588883 2.817323,3.71316863 0.02972,2.4172797 0.399843,4.4517382 1.126929,4.9403942 0.727084,0.488655 0.909128,0.753809 0.818108,1.1429045 -0.09103,0.389095 -0.877705,1.108363 -1.534358,0.301726 -0.656653,-0.8066365 -1.146434,-0.16153 -1.146434,-0.16153 0,0 -0.564548,0.742634 -1.338228,0.02337 -0.77368,-0.7192675 -1.394575,0.06502 -1.394575,0.06502 0,0 -0.694578,0.655265 -1.346897,-0.01221 -0.652318,-0.6674575 -1.209281,0.03047 -1.209281,0.03047 0,0 -0.71625,0.837112 -1.404327,0.0082 -0.688077,-0.8289865 -0.193807,-0.8862205 0.455107,-1.3674215 0.648912,-0.481201 1.244725,-2.8478123 1.200611,-4.9129677 -0.04876,-2.2827606 1.074917,-3.76294833 2.956022,-3.77107563 z"
         id="path11-4"
         sodipodi:nodetypes="zzssscscscszsz" />
      <ellipse
         style="fill:#cfcfcf;fill-opacity:0.993341;fill-rule:nonzero;stroke-width:1.19337"
         id="ellipse11-8"
         cx="15.380685"
         cy="2.5573635"
         rx="0.73629642"
         ry="0.56027704" />
      <ellipse
         style="fill:#cfcfcf;fill-opacity:0.993341;fill-rule:nonzero;stroke-width:1.19337"
         id="ellipse12-9"
         cx="17.660475"
         cy="2.5845852"
         rx="0.73629642"
         ry="0.56027704" />
      <ellipse
         style="fill:#000000;fill-opacity:0.993341;fill-rule:nonzero;stroke-width:0.914481"
         id="ellipse13-2"
         cx="15.377433"
         cy="2.5538077"
         rx="0.12948847"
         ry="0.13206892" />
      <ellipse
         style="fill:#000000;fill-opacity:0.993341;fill-rule:nonzero;stroke-width:0.914481"
         id="ellipse14-0"
         cx="17.675219"
         cy="2.561152"
         rx="0.12948847"
         ry="0.13206892" />
    </g>
    <g
       id="g16"
       style="display:inline"
       transform="matrix(8.6399355,0,0,8.0314151,-16.615065,-1.7000949)">
      <path
         style="fill:#da0c0c;fill-opacity:1;stroke-width:1.19337"
         d="m 16.599176,0.22736267 c 1.881105,-0.00812 2.787607,1.29588883 2.817323,3.71316863 0.02972,2.4172797 0.399843,4.4517382 1.126929,4.9403942 0.727084,0.488655 0.909128,0.753809 0.818108,1.1429045 -0.09103,0.389095 -0.877705,1.108363 -1.534358,0.301726 -0.656653,-0.8066365 -1.146434,-0.16153 -1.146434,-0.16153 0,0 -0.564548,0.742634 -1.338228,0.02337 -0.77368,-0.7192675 -1.394575,0.06502 -1.394575,0.06502 0,0 -0.694578,0.655265 -1.346897,-0.01221 -0.652318,-0.6674575 -1.209281,0.03047 -1.209281,0.03047 0,0 -0.71625,0.837112 -1.404327,0.0082 -0.688077,-0.8289865 -0.193807,-0.8862205 0.455107,-1.3674215 0.648912,-0.481201 1.244725,-2.8478123 1.200611,-4.9129677 -0.04876,-2.2827606 1.074917,-3.76294833 2.956022,-3.77107563 z"
         id="path1-3"
         sodipodi:nodetypes="zzssscscscszsz" />
      <ellipse
         style="fill:#cfcfcf;fill-opacity:0.993341;fill-rule:nonzero;stroke-width:1.19337"
         id="path2-6"
         cx="15.380685"
         cy="2.5573635"
         rx="0.73629642"
         ry="0.56027704" />
      <ellipse
         style="fill:#cfcfcf;fill-opacity:0.993341;fill-rule:nonzero;stroke-width:1.19337"
         id="path2-0-0"
         cx="17.660475"
         cy="2.5845852"
         rx="0.73629642"
         ry="0.56027704" />
      <ellipse
         style="fill:#000000;fill-opacity:0.993341;fill-rule:nonzero;stroke-width:0.914481"
         id="path3-2"
         cx="15.377433"
         cy="2.5538077"
         rx="0.12948847"
         ry="0.13206892" />
      <ellipse
         style="fill:#000000;fill-opacity:0.993341;fill-rule:nonzero;stroke-width:0.914481"
         id="path3-6-7"
         cx="17.675219"
         cy="2.561152"
         rx="0.12948847"
         ry="0.13206892" />
    </g>
    <g
       id="g15"
       style="display:inline"
       transform="matrix(8.6399355,0,0,8.0314149,-100.8403,-1.623168)">
      <path
         style="fill:#da0c0c;fill-opacity:1;stroke-width:1.19337"
         d="m 16.619609,0.21778442 c 1.881105,-0.00812 2.787607,1.29588878 2.817323,3.71316858 0.02972,2.4172797 0.399843,4.4517382 1.126929,4.9403942 0.727084,0.488655 0.909128,0.753809 0.818108,1.1429048 -0.09103,0.389095 -0.877705,1.108363 -1.534358,0.301726 -0.656653,-0.8066368 -1.146434,-0.16153 -1.146434,-0.16153 0,0 -0.564548,0.742634 -1.338228,0.02337 -0.77368,-0.7192678 -1.394575,0.06502 -1.394575,0.06502 0,0 -0.694578,0.655265 -1.346897,-0.01221 -0.652318,-0.6674578 -1.209281,0.03047 -1.209281,0.03047 0,0 -0.71625,0.837112 -1.404327,0.0082 -0.688077,-0.8289868 -0.193807,-0.8862208 0.455107,-1.3674218 0.648912,-0.481201 1.244725,-2.8478123 1.200611,-4.9129677 -0.04876,-2.2827606 1.074917,-3.76294828 2.956022,-3.77107558 z"
         id="path11"
         sodipodi:nodetypes="zzssscscscszsz" />
      <ellipse
         style="fill:#cfcfcf;fill-opacity:0.993341;fill-rule:nonzero;stroke-width:1.19337"
         id="ellipse11"
         cx="15.380685"
         cy="2.5573635"
         rx="0.73629642"
         ry="0.56027704" />
      <ellipse
         style="fill:#cfcfcf;fill-opacity:0.993341;fill-rule:nonzero;stroke-width:1.19337"
         id="ellipse12"
         cx="17.660475"
         cy="2.5845852"
         rx="0.73629642"
         ry="0.56027704" />
      <ellipse
         style="fill:#000000;fill-opacity:0.993341;fill-rule:nonzero;stroke-width:0.914481"
         id="ellipse13"
         cx="15.377433"
         cy="2.5538077"
         rx="0.12948847"
         ry="0.13206892" />
      <ellipse
         style="fill:#000000;fill-opacity:0.993341;fill-rule:nonzero;stroke-width:0.914481"
         id="ellipse14"
         cx="17.675219"
         cy="2.561152"
         rx="0.12948847"
         ry="0.13206892" />
    </g>
  </g>
</svg>
